<svg width="121" height="38" viewBox="0 0 121 38" fill="none" xmlns="http://www.w3.org/2000/svg">
<g id="Amazon Logo" clip-path="url(#clip0_5_3793)">
<path id="path8" fill-rule="evenodd" clip-rule="evenodd" d="M75.18 29.1293C68.221 34.4247 58.1344 37.25 49.45 37.25C37.273 37.25 26.3107 32.6004 18.0172 24.8672C17.3656 24.259 17.9494 23.4303 18.7314 23.9039C27.6816 29.28 38.7482 32.5143 50.1798 32.5143C57.8894 32.5143 66.3705 30.8675 74.1687 27.4503C75.3468 26.9336 76.332 28.2467 75.18 29.1293Z" fill="#FFFDF8"/>
<path id="path10" fill-rule="evenodd" clip-rule="evenodd" d="M78.0747 25.7122C77.1885 24.5391 72.1947 25.158 69.9532 25.4324C69.2704 25.5185 69.1661 24.905 69.7812 24.4637C73.7585 21.5739 80.2848 22.408 81.0459 23.3767C81.807 24.3507 80.8478 31.1045 77.1103 34.328C76.5369 34.8231 75.9896 34.5594 76.245 33.9029C77.0842 31.7395 78.966 26.8908 78.0747 25.7122Z" fill="#FFFDF8"/>
<path id="path12" fill-rule="evenodd" clip-rule="evenodd" d="M70.1074 4.06247V1.25333C70.1074 0.828188 70.4201 0.542969 70.7954 0.542969H82.9776C83.3686 0.542969 83.6813 0.833571 83.6813 1.25333V3.65886C83.6761 4.06247 83.3477 4.58986 82.7639 5.42399L76.4512 14.7286C78.797 14.6694 81.273 15.03 83.3998 16.2677C83.8794 16.5476 84.0097 16.9566 84.0462 17.3602V20.3577C84.0462 20.7667 83.6083 21.2456 83.1496 20.9981C79.4017 18.9692 74.4235 18.7486 70.2794 21.0196C69.8571 21.2564 69.4141 20.7828 69.4141 20.3738V17.527C69.4141 17.0696 69.4193 16.2893 69.8624 15.595L77.1758 4.76745H70.8111C70.4201 4.76745 70.1074 4.48223 70.1074 4.06247Z" fill="#FFFDF8"/>
<path id="path14" fill-rule="evenodd" clip-rule="evenodd" d="M25.671 21.5902H21.9648C21.6103 21.5633 21.3288 21.2889 21.3027 20.9391V1.30197C21.3027 0.909124 21.6207 0.596994 22.0169 0.596994H25.4729C25.8326 0.613128 26.1193 0.898358 26.1454 1.25354V3.82052H26.2131C27.1149 1.33964 28.8091 0.182617 31.0922 0.182617C33.4119 0.182617 34.861 1.33964 35.9036 3.82052C36.8002 1.33964 38.8384 0.182617 41.0225 0.182617C42.5759 0.182617 44.2752 0.844542 45.3126 2.32984C46.4854 3.98196 46.2457 6.38211 46.2457 8.48628L46.2404 20.8799C46.2404 21.2727 45.9225 21.5902 45.5263 21.5902H41.8253C41.4552 21.5633 41.158 21.2566 41.158 20.8799V10.4721C41.158 9.6433 41.231 7.57681 41.0538 6.7911C40.7775 5.47264 39.9487 5.10131 38.8748 5.10131C37.9783 5.10131 37.04 5.72019 36.6594 6.71038C36.2789 7.70058 36.3154 9.35808 36.3154 10.4721V20.8799C36.3154 21.2727 35.9974 21.5902 35.6013 21.5902H31.9002C31.5249 21.5633 31.233 21.2566 31.233 20.8799L31.2278 10.4721C31.2278 8.28178 31.577 5.05826 28.9446 5.05826C26.2809 5.05826 26.3852 8.20106 26.3852 10.4721V20.8799C26.3852 21.2727 26.0672 21.5902 25.671 21.5902" fill="#FFFDF8"/>
<path id="path16" fill-rule="evenodd" clip-rule="evenodd" d="M94.1705 0.182617C99.6699 0.182617 102.646 5.05826 102.646 11.2578C102.646 17.2474 99.3571 21.9992 94.1705 21.9992C88.7701 21.9992 85.8301 17.1236 85.8301 11.0479C85.8301 4.93449 88.8065 0.182617 94.1705 0.182617ZM94.2017 4.19184C91.4703 4.19184 91.2982 8.03423 91.2982 10.429C91.2982 12.8292 91.2617 17.9524 94.1705 17.9524C97.0427 17.9524 97.1782 13.8194 97.1782 11.3008C97.1782 9.64331 97.1104 7.66291 96.6257 6.09151C96.2086 4.72461 95.3798 4.19184 94.2017 4.19184Z" fill="#FFFDF8"/>
<path id="path18" fill-rule="evenodd" clip-rule="evenodd" d="M109.777 21.5902H106.086C105.716 21.5633 105.419 21.2566 105.419 20.8799L105.414 1.23739C105.445 0.876831 105.753 0.596994 106.128 0.596994H109.563C109.887 0.613128 110.152 0.839162 110.225 1.14591V4.14879H110.293C111.331 1.46342 112.785 0.182617 115.344 0.182617C117.007 0.182617 118.628 0.801491 119.671 2.49666C120.64 4.06806 120.64 6.71038 120.64 8.61005V20.9714C120.599 21.3158 120.291 21.5902 119.926 21.5902H116.21C115.871 21.5633 115.589 21.305 115.553 20.9714V10.3052C115.553 8.15801 115.793 5.01521 113.233 5.01521C112.331 5.01521 111.503 5.63947 111.091 6.58661C110.569 7.78669 110.502 8.98138 110.502 10.3052V20.8799C110.496 21.2727 110.173 21.5902 109.777 21.5902" fill="#FFFDF8"/>
<path id="path28" fill-rule="evenodd" clip-rule="evenodd" d="M60.3972 12.2102C60.3972 13.7008 60.4337 14.944 59.7039 16.2678C59.1149 17.3441 58.1766 18.006 57.1393 18.006C55.7162 18.006 54.8822 16.8867 54.8822 15.2346C54.8822 11.9734 57.7127 11.3814 60.3972 11.3814V12.2102ZM64.1348 21.5363C63.8898 21.7623 63.5353 21.7785 63.259 21.6278C62.0288 20.573 61.8047 20.0833 61.1322 19.077C59.0993 21.2188 57.6553 21.8592 55.0229 21.8592C51.9005 21.8592 49.4766 19.8734 49.4766 15.8965C49.4766 12.7914 51.1029 10.6764 53.4278 9.64318C55.4399 8.72833 58.2496 8.56688 60.3972 8.31395V7.81885C60.3972 6.90938 60.465 5.83307 59.9437 5.04738C59.4954 4.3424 58.6301 4.0518 57.8639 4.0518C56.4512 4.0518 55.1949 4.79983 54.8874 6.3497C54.8248 6.69412 54.5798 7.03315 54.241 7.0493L50.6494 6.65106C50.3471 6.58111 50.0083 6.32817 50.0969 5.84922C50.9205 1.35028 54.8613 -0.00585938 58.3851 -0.00585938C60.1887 -0.00585938 62.5449 0.48924 63.968 1.89919C65.7716 3.63742 65.5996 5.95685 65.5996 8.48078V14.4435C65.5996 16.2355 66.3189 17.0212 66.9966 17.9899C67.2311 18.3343 67.2833 18.7487 66.9809 19.007C66.2251 19.6582 64.8802 20.869 64.14 21.5471L64.1348 21.5363" fill="#FFFDF8"/>
<path id="path30" fill-rule="evenodd" clip-rule="evenodd" d="M11.8093 12.2102C11.8093 13.7008 11.8458 14.944 11.116 16.2678C10.527 17.3441 9.59393 18.006 8.55138 18.006C7.12831 18.006 6.29949 16.8867 6.29949 15.2346C6.29949 11.9734 9.13 11.3814 11.8093 11.3814V12.2102ZM15.5469 21.5363C15.3019 21.7623 14.9474 21.7785 14.6711 21.6278C13.4409 20.573 13.222 20.0833 12.5443 19.077C10.5114 21.2188 9.07266 21.8592 6.43502 21.8592C3.3178 21.8592 0.888672 19.8734 0.888672 15.8965C0.888672 12.7914 2.52026 10.6764 4.83992 9.64318C6.85203 8.72832 9.6617 8.56688 11.8093 8.31395V7.81885C11.8093 6.90938 11.8771 5.83307 11.361 5.04738C10.9075 4.3424 10.0422 4.0518 9.28117 4.0518C7.86852 4.0518 6.60704 4.79983 6.29949 6.3497C6.23693 6.69412 5.99193 7.03315 5.65832 7.0493L2.06154 6.65106C1.7592 6.58111 1.42558 6.32817 1.50899 5.84922C2.33781 1.35028 6.27342 -0.00585938 9.79723 -0.00585938C11.6008 -0.00585938 13.957 0.48924 15.3801 1.89919C17.1837 3.63742 17.0116 5.95685 17.0116 8.48078V14.4435C17.0116 16.2355 17.731 17.0212 18.4087 17.9899C18.6484 18.3343 18.7006 18.7487 18.3982 19.007C17.6424 19.6582 16.2975 20.869 15.5573 21.5471L15.5469 21.5363" fill="#FFFDF8"/>
</g>
<defs>
<clipPath id="clip0_5_3793">
<rect width="119.752" height="37.2562" fill="white" transform="translate(0.888672 -0.00585938)"/>
</clipPath>
</defs>
</svg>
