<svg width="24" height="24" viewBox="0 0 24 24" fill="none" xmlns="http://www.w3.org/2000/svg">
<path fill-rule="evenodd" clip-rule="evenodd" d="M8.27814 5.08285C7.36991 5.95924 6.75 7.34676 6.75 9.4C6.75 11.4143 7.63994 13.6705 8.82041 15.4408C9.40665 16.3199 10.0439 17.0475 10.6398 17.5462C11.263 18.0677 11.7337 18.25 12 18.25C12.2663 18.25 12.737 18.0677 13.3602 17.5462C13.9561 17.0475 14.5933 16.3199 15.1796 15.4408C16.3601 13.6705 17.25 11.4143 17.25 9.4C17.25 7.34676 16.6301 5.95924 15.7219 5.08285C14.8072 4.20029 13.511 3.75 12 3.75C10.489 3.75 9.19277 4.20029 8.27814 5.08285ZM7.23658 4.00344C8.49352 2.79057 10.1973 2.25 12 2.25C13.8027 2.25 15.5065 2.79057 16.7634 4.00344C18.0268 5.22248 18.75 7.03496 18.75 9.4C18.75 11.804 17.7114 14.3478 16.4276 16.273C15.7817 17.2416 15.0529 18.0855 14.3229 18.6965C13.6201 19.2846 12.8051 19.75 12 19.75C11.1949 19.75 10.3799 19.2846 9.67713 18.6965C8.94713 18.0855 8.21835 17.2416 7.57244 16.273C6.28863 14.3478 5.25 11.804 5.25 9.4C5.25 7.03496 5.97324 5.22248 7.23658 4.00344Z" fill="#0B2131"/>
<path fill-rule="evenodd" clip-rule="evenodd" d="M12 7.75C11.3096 7.75 10.75 8.30964 10.75 9C10.75 9.69036 11.3096 10.25 12 10.25C12.6904 10.25 13.25 9.69036 13.25 9C13.25 8.30964 12.6904 7.75 12 7.75ZM9.25 9C9.25 7.48122 10.4812 6.25 12 6.25C13.5188 6.25 14.75 7.48122 14.75 9C14.75 10.5188 13.5188 11.75 12 11.75C10.4812 11.75 9.25 10.5188 9.25 9Z" fill="#0B2131"/>
<path fill-rule="evenodd" clip-rule="evenodd" d="M9.45361 21.5653C8.53864 21.1078 7.46168 21.1078 6.54672 21.5653L4.33557 22.6709C3.96509 22.8561 3.51459 22.7059 3.32934 22.3354C3.1441 21.965 3.29427 21.5145 3.66475 21.3292L5.8759 20.2236C7.21316 19.555 8.78717 19.555 10.1244 20.2236L10.5467 20.4348C11.4617 20.8923 12.5386 20.8923 13.4536 20.4348L13.8759 20.2236C15.2132 19.555 16.7872 19.555 18.1244 20.2236L20.3356 21.3292C20.7061 21.5145 20.8562 21.965 20.671 22.3354C20.4857 22.7059 20.0352 22.8561 19.6648 22.6709L17.4536 21.5653C16.5386 21.1078 15.4617 21.1078 14.5467 21.5653L14.1244 21.7764C12.7872 22.4451 11.2132 22.4451 9.8759 21.7764L9.45361 21.5653Z" fill="#0B2131"/>
</svg>
